<svg id="visual" viewBox="0 0 960 350" width="960" height="350" xmlns="http://www.w3.org/2000/svg" xmlns:xlink="http://www.w3.org/1999/xlink" version="1.1"><path d="M0 262L40 256.2C80 250.3 160 238.7 240 233.7C320 228.7 400 230.3 480 239.8C560 249.3 640 266.7 720 270.5C800 274.3 880 264.7 920 259.8L960 255L960 351L920 351C880 351 800 351 720 351C640 351 560 351 480 351C400 351 320 351 240 351C160 351 80 351 40 351L0 351Z" fill="#CCCCCC" stroke-linecap="round" stroke-linejoin="miter"></path></svg>