<svg id="visual" viewBox="0 0 900 600" width="900" height="600" xmlns="http://www.w3.org/2000/svg" xmlns:xlink="http://www.w3.org/1999/xlink" version="1.1"><path d="M0 449L37.5 439.3C75 429.7 150 410.3 225 401.8C300 393.3 375 395.7 450 411.8C525 428 600 458 675 464.7C750 471.3 825 454.7 862.5 446.3L900 438L900 601L862.5 601C825 601 750 601 675 601C600 601 525 601 450 601C375 601 300 601 225 601C150 601 75 601 37.5 601L0 601Z" fill="#CCCCCC" stroke-linecap="round" stroke-linejoin="miter"></path></svg>