<svg id="visual" viewBox="0 0 900 600" width="900" height="600" xmlns="http://www.w3.org/2000/svg" xmlns:xlink="http://www.w3.org/1999/xlink" version="1.1"><path d="M0 522L30 509.8C60 497.7 120 473.3 180 474.8C240 476.3 300 503.7 360 516.3C420 529 480 527 540 498.5C600 470 660 415 720 409C780 403 840 446 870 467.5L900 489L900 601L870 601C840 601 780 601 720 601C660 601 600 601 540 601C480 601 420 601 360 601C300 601 240 601 180 601C120 601 60 601 30 601L0 601Z" fill="#CCCCCC" stroke-linecap="round" stroke-linejoin="miter"></path></svg>