<svg id="visual" viewBox="0 0 900 450" width="900" height="450" xmlns="http://www.w3.org/2000/svg" xmlns:xlink="http://www.w3.org/1999/xlink" version="1.1"><path d="M0 316L16.7 319.7C33.3 323.3 66.7 330.7 100 334.8C133.3 339 166.7 340 200 341.2C233.3 342.3 266.7 343.7 300 338.7C333.3 333.7 366.7 322.3 400 321C433.3 319.7 466.7 328.3 500 337.3C533.3 346.3 566.7 355.7 600 356C633.3 356.3 666.7 347.7 700 338.5C733.3 329.3 766.7 319.7 800 321C833.3 322.3 866.7 334.7 883.3 340.8L900 347L900 451L883.3 451C866.7 451 833.3 451 800 451C766.7 451 733.3 451 700 451C666.7 451 633.3 451 600 451C566.7 451 533.3 451 500 451C466.7 451 433.3 451 400 451C366.7 451 333.3 451 300 451C266.7 451 233.3 451 200 451C166.7 451 133.3 451 100 451C66.7 451 33.3 451 16.7 451L0 451Z" fill="#FFFFFF" stroke-linecap="round" stroke-linejoin="miter"></path></svg>